<svg width="121" height="120" viewBox="0 0 121 120" fill="none" xmlns="http://www.w3.org/2000/svg">
<path d="M109.515 23.2839C129.263 49.7061 122.636 88.1772 96.3204 108.018C70.0051 127.847 32.6644 122.514 12.9158 96.0916C-6.83279 69.6695 -1.52102 32.177 24.7942 12.3482C51.1094 -7.48062 89.7538 -3.13817 109.515 23.2839Z" fill="#F4F6FA"/>
<path fill-rule="evenodd" clip-rule="evenodd" d="M89.714 58.0519H55.748C55.1121 58.0519 54.5023 58.3045 54.0526 58.7541C53.603 59.2037 53.3504 59.8136 53.3504 60.4495V77.7122H92.1116V60.4495C92.1116 59.8136 91.859 59.2037 91.4094 58.7541C90.9598 58.3045 90.3499 58.0519 89.714 58.0519ZM60.703 66.0439C60.4863 66.1193 60.2546 66.1418 60.0273 66.1094C59.8001 66.077 59.5839 65.9907 59.3968 65.8578C59.2097 65.7248 59.0571 65.5489 58.9519 65.345C58.8466 65.141 58.7917 64.9148 58.7917 64.6852C58.7917 64.4557 58.8466 64.2295 58.9519 64.0255C59.0571 63.8215 59.2097 63.6457 59.3968 63.5127C59.5839 63.3797 59.8001 63.2934 60.0273 63.2611C60.2546 63.2287 60.4863 63.2511 60.703 63.3266C61.0171 63.4022 61.2965 63.5812 61.4963 63.8349C61.6962 64.0886 61.8049 64.4022 61.8049 64.7252C61.8049 65.0482 61.6962 65.3617 61.4963 65.6154C61.2965 65.8691 61.0171 66.0482 60.703 66.1238V66.0439ZM66.5372 72.0379C66.3257 72.0888 66.1054 72.0911 65.8929 72.0446C65.6804 71.998 65.4812 71.9039 65.3103 71.7693C65.1394 71.6347 65.0012 71.463 64.9063 71.2673C64.8113 71.0716 64.7619 70.8568 64.7619 70.6393C64.7619 70.4217 64.8113 70.207 64.9063 70.0113C65.0012 69.8155 65.1394 69.6439 65.3103 69.5093C65.4812 69.3746 65.6804 69.2805 65.8929 69.234C66.1054 69.1875 66.3257 69.1898 66.5372 69.2407C66.8512 69.3163 67.1306 69.4953 67.3305 69.749C67.5304 70.0027 67.6391 70.3163 67.6391 70.6393C67.6391 70.9622 67.5304 71.2758 67.3305 71.5295C67.1306 71.7832 66.8512 71.9623 66.5372 72.0379ZM72.4513 66.1238C72.2398 66.1747 72.0195 66.177 71.807 66.1305C71.5944 66.084 71.3952 65.9898 71.2243 65.8552C71.0535 65.7206 70.9153 65.5489 70.8203 65.3532C70.7254 65.1575 70.676 64.9427 70.676 64.7252C70.676 64.5076 70.7254 64.2929 70.8203 64.0972C70.9153 63.9015 71.0535 63.7298 71.2243 63.5952C71.3952 63.4606 71.5944 63.3664 71.807 63.3199C72.0195 63.2734 72.2398 63.2757 72.4513 63.3266C72.7653 63.4022 73.0447 63.5812 73.2446 63.8349C73.4445 64.0886 73.5532 64.4022 73.5532 64.7252C73.5532 65.0482 73.4445 65.3617 73.2446 65.6154C73.0447 65.8691 72.7653 66.0482 72.4513 66.1238ZM78.3654 72.0379C78.1539 72.0888 77.9336 72.0911 77.721 72.0446C77.5085 71.998 77.3093 71.9039 77.1384 71.7693C76.9675 71.6347 76.8294 71.463 76.7344 71.2673C76.6395 71.0716 76.5901 70.8568 76.5901 70.6393C76.5901 70.4217 76.6395 70.207 76.7344 70.0113C76.8294 69.8155 76.9675 69.6439 77.1384 69.5093C77.3093 69.3746 77.5085 69.2805 77.721 69.234C77.9336 69.1875 78.1539 69.1898 78.3654 69.2407C78.6794 69.3163 78.9588 69.4953 79.1587 69.749C79.3586 70.0027 79.4672 70.3163 79.4672 70.6393C79.4672 70.9622 79.3586 71.2758 79.1587 71.5295C78.9588 71.7832 78.6794 71.9623 78.3654 72.0379ZM84.2795 66.1238C84.068 66.1747 83.8477 66.177 83.6351 66.1305C83.4226 66.084 83.2234 65.9898 83.0525 65.8552C82.8816 65.7206 82.7435 65.5489 82.6485 65.3532C82.5535 65.1575 82.5042 64.9427 82.5042 64.7252C82.5042 64.5076 82.5535 64.2929 82.6485 64.0972C82.7435 63.9015 82.8816 63.7298 83.0525 63.5952C83.2234 63.4606 83.4226 63.3664 83.6351 63.3199C83.8477 63.2734 84.068 63.2757 84.2795 63.3266C84.5935 63.4022 84.8729 63.5812 85.0728 63.8349C85.2726 64.0886 85.3813 64.4022 85.3813 64.7252C85.3813 65.0482 85.2726 65.3617 85.0728 65.6154C84.8729 65.8691 84.5935 66.0482 84.2795 66.1238ZM42.1616 50.2197H23.3804L25.2985 31.4385H40.1636L42.0817 50.2197H42.1616Z" fill="#EEF0F4"/>
<path fill-rule="evenodd" clip-rule="evenodd" d="M100.903 67.7223C100.903 65.8042 99.3046 64.2857 97.3865 64.2857H94.0299C93.6303 64.2857 93.2307 64.2857 92.911 64.4456V61.009C92.911 58.6114 90.9929 56.6933 88.5953 56.6933H56.1477C53.7501 56.6933 51.912 58.6114 51.912 61.009V64.3656H50.5533H47.3565C45.4385 64.3656 43.92 65.964 43.92 67.8022V85.6244H47.7561V87.0629H46.1577V89.4605H51.8321V87.0629H50.1537V85.6244H95.0688V87.0629H93.3905V89.4605H99.1448V87.0629H97.3865V85.6244H100.983V67.7223H100.903ZM51.8321 77.5524V83.2268H46.1577V67.7223C46.1577 67.0829 46.6373 66.6034 47.2766 66.6034H50.6333C51.2726 66.6034 51.8321 67.0829 51.8321 67.7223V77.5524ZM54.1497 83.1469V78.7513H90.5134V83.2268H54.1497V83.1469ZM90.5134 76.5135H54.1497V61.009C54.1497 59.8901 54.9489 59.011 56.0678 59.011H88.5953C89.7142 59.011 90.5933 59.8901 90.5933 61.009V76.3536L90.5134 76.5135ZM92.911 78.7513V67.7223C92.911 67.0829 93.3905 66.6034 94.0299 66.6034H97.3865C98.0259 66.6034 98.5853 67.0829 98.5853 67.7223V83.2268H92.911V78.7513ZM73.4904 64.5255C73.5413 64.737 73.5436 64.9573 73.4971 65.1698C73.4506 65.3823 73.3564 65.5815 73.2218 65.7524C73.0872 65.9233 72.9155 66.0615 72.7198 66.1564C72.5241 66.2514 72.3094 66.3008 72.0918 66.3008C71.8742 66.3008 71.6595 66.2514 71.4638 66.1564C71.2681 66.0615 71.0964 65.9233 70.9618 65.7524C70.8272 65.5815 70.733 65.3823 70.6865 65.1698C70.64 64.9573 70.6423 64.737 70.6932 64.5255C70.7688 64.2115 70.9479 63.9321 71.2016 63.7322C71.4553 63.5323 71.7688 63.4236 72.0918 63.4236C72.4148 63.4236 72.7283 63.5323 72.982 63.7322C73.2357 63.9321 73.4148 64.2115 73.4904 64.5255ZM79.4045 70.4396C79.4554 70.6511 79.4577 70.8714 79.4112 71.0839C79.3646 71.2964 79.2705 71.4956 79.1359 71.6665C79.0013 71.8374 78.8296 71.9755 78.6339 72.0705C78.4382 72.1655 78.2234 72.2148 78.0059 72.2148C77.7883 72.2148 77.5736 72.1655 77.3779 72.0705C77.1822 71.9755 77.0105 71.8374 76.8759 71.6665C76.7413 71.4956 76.6471 71.2964 76.6006 71.0839C76.5541 70.8714 76.5564 70.6511 76.6073 70.4396C76.6829 70.1256 76.8619 69.8461 77.1156 69.6463C77.3693 69.4464 77.6829 69.3377 78.0059 69.3377C78.3289 69.3377 78.6424 69.4464 78.8961 69.6463C79.1498 69.8461 79.3289 70.1256 79.4045 70.4396ZM67.5763 70.4396C67.6272 70.6511 67.6295 70.8714 67.583 71.0839C67.5365 71.2964 67.4424 71.4956 67.3077 71.6665C67.1731 71.8374 67.0015 71.9755 66.8057 72.0705C66.61 72.1655 66.3953 72.2148 66.1777 72.2148C65.9602 72.2148 65.7454 72.1655 65.5497 72.0705C65.354 71.9755 65.1823 71.8374 65.0477 71.6665C64.9131 71.4956 64.819 71.2964 64.7724 71.0839C64.7259 70.8714 64.7282 70.6511 64.7791 70.4396C64.8547 70.1256 65.0338 69.8461 65.2875 69.6463C65.5412 69.4464 65.8547 69.3377 66.1777 69.3377C66.5007 69.3377 66.8143 69.4464 67.068 69.6463C67.3217 69.8461 67.5007 70.1256 67.5763 70.4396ZM61.7422 64.5255C61.7931 64.737 61.7954 64.9573 61.7488 65.1698C61.7023 65.3823 61.6082 65.5815 61.4736 65.7524C61.3389 65.9233 61.1673 66.0615 60.9716 66.1564C60.7758 66.2514 60.5611 66.3008 60.3436 66.3008C60.126 66.3008 59.9113 66.2514 59.7155 66.1564C59.5198 66.0615 59.3482 65.9233 59.2135 65.7524C59.0789 65.5815 58.9848 65.3823 58.9383 65.1698C58.8917 64.9573 58.894 64.737 58.945 64.5255C59.0205 64.2115 59.1996 63.9321 59.4533 63.7322C59.707 63.5323 60.0206 63.4236 60.3436 63.4236C60.6665 63.4236 60.9801 63.5323 61.2338 63.7322C61.4875 63.9321 61.6666 64.2115 61.7422 64.5255ZM85.3985 64.5255C85.4494 64.737 85.4517 64.9573 85.4052 65.1698C85.3587 65.3823 85.2645 65.5815 85.1299 65.7524C84.9953 65.9233 84.8236 66.0615 84.6279 66.1564C84.4322 66.2514 84.2174 66.3008 83.9999 66.3008C83.7823 66.3008 83.5676 66.2514 83.3719 66.1564C83.1762 66.0615 83.0045 65.9233 82.8699 65.7524C82.7353 65.5815 82.6411 65.3823 82.5946 65.1698C82.5481 64.9573 82.5504 64.737 82.6013 64.5255C82.6769 64.2115 82.8559 63.9321 83.1096 63.7322C83.3633 63.5323 83.6769 63.4236 83.9999 63.4236C84.3229 63.4236 84.6364 63.5323 84.8901 63.7322C85.1438 63.9321 85.3229 64.2115 85.3985 64.5255ZM42.3216 51.0989L40.1637 30H23.1408L20.9829 51.0989H30.4934V87.4625H26.0978V89.7802H37.2866V87.3826H32.8111V51.1788H42.4015L42.3216 51.0989ZM36.9669 32.3177H38.1657L39.844 48.7812H36.9669V32.3177ZM26.5773 48.7812H23.5404L25.2187 32.3177H26.5773V48.7812ZM28.0958 48.7812V32.3177H30.9729V48.7812H28.0159H28.0958ZM32.5713 32.3177H35.3685V48.7812H32.4914V32.3177H32.5713Z" fill="#313133"/>
<path d="M38.1659 32.3177H36.9671V48.7813H39.8442L38.1659 32.3177Z" fill="#37F826"/>
<path d="M23.5405 48.7813H26.5775V32.3177H25.2188L23.5405 48.7813Z" fill="#37F826"/>
<path d="M28.096 32.3177V48.7813H30.9731V32.3177H28.096Z" fill="#37F826"/>
<path d="M35.3687 32.3177H32.5715H32.4916V48.7813H35.3687V32.3177Z" fill="#37F826"/>
</svg>
